<svg xmlns="http://www.w3.org/2000/svg" viewBox="0 0 276.06 79.39"><defs><style>.a{fill:#bb5253}.b{fill:none;stroke-miterlimit:10;stroke:#3c4359}.c{fill:#424d47}</style></defs><ellipse class="a" cx="12.35" cy="76.78" rx="2.4" ry="2.62"/><path class="a" d="M0 7.78v68.28h24.7V7.78Zm23.79 35.69h-2.85v-3.1h2.85Z"/><path class="b" d="M6.39 14.46h11.93v24.47H6.39zM6.39 44.31h11.93v24.47H6.39z"/><ellipse class="a" cx="39.29" cy="76.78" rx="2.4" ry="2.62"/><path class="a" d="M26.94 7.78v68.28h24.7V7.78Zm.9 32.59h2.86v3.1h-2.86Z"/><path class="b" d="M45.25 38.93H33.32V14.46h11.93zM45.25 68.78H33.32V44.31h11.93z"/><path class="a" d="M36.46 4.42C35.53 1.91 31.12 0 25.82 0s-9.71 1.91-10.64 4.42H0v1.71h51.64V4.42Z"/><path class="c" d="M68.73 24.61h9.86v1.47l-4.35.54h-.74l-4.77-.54Zm0 22.62 4.78-.54h.37v2h-5.15Zm3.45-9.69v-1.77c0-3.78 0-7.53-.11-11.16h3.61c-.1 3.7-.1 7.45-.1 11.16v1.77c0 3.78 0 7.52.1 11.16h-3.61c.11-3.7.11-7.45.11-11.16Zm1.7 9.34h24.2v1.82h-24.2Zm7.38-22.27h9.43v1.47l-4.35.54h-.73l-4.35-.54Zm3 12.93v-1.77c0-3.72 0-7.46-.11-11.16h3.61c-.11 3.63-.11 7.38-.11 11.16v1.77c0 3.71 0 7.45.11 11.16h-3.59c.11-3.64.11-7.38.11-11.16Zm9.08-12.93h9.86v1.47l-4.76.54h-.74l-4.36-.54Zm3 12.93v-1.77c0-3.71 0-7.46-.11-11.16h3.61c-.1 3.63-.1 7.38-.1 11.16v1.77c0 3.71 0 7.45.1 11.16h-3.57c.11-3.64.11-7.38.11-11.16Zm1.7 9.15h.36l4.78.54v1.47h-5.1ZM106.34 24.61h10.16v1.47l-4.72.54H111l-4.7-.54Zm0 22.62 4.7-.54h.74l4.72.54v1.47h-10.16Zm3.38-9.69v-1.77c0-3.71 0-7.46-.1-11.16h3.6c-.11 3.63-.11 7.38-.11 11.16V48.7h-3.48c.09-3.64.09-7.38.09-11.16Zm1.28 7.74 16-19.77.12 2.55-16 19.67Zm10.68-20.67h10.15v1.47l-4.71.54h-.73l-4.71-.54Zm0 22.62 4.71-.54h.73l4.71.54v1.47h-10.14Zm3.38-10.38V24.61h3.49c-.11 3.63-.11 7.38-.11 11.16v1.77c0 3.71 0 7.45.11 11.16H125c.07-3.64.07-7.38.07-11.85ZM143.41 28.39h2.1V30h-1.95c-5 0-6.41 3.33-6.41 6.71s1.39 6.7 6.41 6.7h1.95v1.56h-2.1c-6.29 0-9.64-3.28-9.64-8.27s3.23-8.31 9.64-8.31Zm-2.79-4.21h10.15v1.47l-4.71.54h-.74l-4.7-.54Zm0 23.48 4.7-.61h.74l4.71.61v1.47h-10.15Zm3.56-9.87v-1.94c0-3.7 0-8-.11-11.67h3.24c-.1 3.63-.1 7.9-.1 11.67v1.94c0 3.71 0 7.63.1 11.34h-3.24c.11-3.64.11-7.56.11-11.34Zm1.7 5.57h2c5 0 6.41-3.37 6.41-6.7S152.81 30 147.83 30h-2v-1.61H148c6.44 0 9.63 3.34 9.63 8.26s-3.34 8.27-9.63 8.27h-2.1ZM182.78 36.65c0 7.91-5.41 12.59-11 12.59s-11-4.37-11-12.59c0-7.91 5.47-12.59 11-12.59s11 4.37 11 12.59Zm-11 10.78c5 0 7.08-5.35 7.08-10.78s-2.08-10.78-7.08-10.78-7.11 5.35-7.11 10.78 2.11 10.78 7.1 10.78ZM185.22 26.08v-1.47h10.15v1.47l-4.71.54h-.74Zm5.44 20.61 4.71.54v1.47h-10.15v-1.47l4.7-.54Zm-2.06-10.92c0-3.71 0-7.46-.11-11.16h3.62C192 28.24 192 32 192 35.77v1.08c0 4.4 0 8.14.11 11.85h-3.62c.11-3.64.11-7.38.11-11.16Zm1.7 1.43v-1.68h15v1.68Zm10-11.12v-1.47h10.15v1.47l-4.71.54H205Zm5.44 20.61 4.71.54v1.47h-10.18v-1.47l4.7-.54Zm-2.07-10.92c0-3.71 0-7.46-.11-11.16h3.61c-.1 3.63-.1 7.38-.1 11.16v1.77c0 3.71 0 7.45.1 11.16h-3.61c.11-3.64.11-7.38.11-11.85ZM213.62 24.61h10.51v1.47l-4.71.54h-1.1l-4.7-.54Zm0 22.62 4.71-.54h.38v2h-5.09Zm3.38-9.69v-1.77c0-3.71 0-7.46-.11-11.16h3.62c-.11 3.63-.11 7.38-.11 11.11v1.82c0 3.71 0 7.45.11 11.16h-3.62c.11-3.64.11-7.38.11-11.16Zm1.71 9.46H223c4.79 0 6.66-2 6.66-5.36s-1.5-5.31-6.31-5.31a22.06 22.06 0 0 0-4.65.36v-1.8a47.33 47.33 0 0 1 5.46-.36c6.1 0 9.07 2.94 9.07 7 0 3.36-2.39 7.15-9.78 7.15h-4.75ZM235.55 26.08v-1.47h5.08v2h-.37Zm5.08 20.61v2h-5.08v-1.46l4.71-.54Zm-1.7-10.92c0-3.71 0-7.46-.11-11.16h3.62c-.11 3.63-.11 7.38-.11 11.16v1.35c0 4.13 0 7.87.11 11.58h-3.62c.11-3.64.11-7.38.11-11.16Zm11.6-11.16 1.68 1.81h-11.58v-1.81h12.83l.26 6.39h-2.08Zm-1.78 12.62h-8.12v-1.68h8.12Zm5.69 5.07-.26 6.4h-13.55v-1.81h12.3l-1.68 1.81 1.11-6.4Zm-6.84-6.37.54-3.8h1.65v8.49h-1.65l-.54-4ZM257.25 26.08v-1.47h5.09v2H262Zm5.49 20.61 4.71.54v1.47h-10.2v-1.47l4.71-.54Zm-2.1-10.92c0-3.71 0-7.46-.11-11.16h3.61c-.1 3.63-.1 7.38-.1 11.16V38c0 3.63 0 7 .1 10.74h-3.61c.11-3.64.11-7.38.11-11.16Zm5.29 3.42h-3.59v-1.68h4.1c4.36 0 6.07-2.33 6.07-5.74s-1.93-5.48-6.22-5.48h-4v-1.68h4.6c6.07 0 9.12 2.94 9.12 7.16.05 4.03-2.71 7.42-10.08 7.42Z"/><path style="stroke:#bb5253;stroke-linecap:round;stroke-width:4px;fill:none;stroke-miterlimit:10" d="M69.67 57.86h203.5"/></svg>