<svg xmlns="http://www.w3.org/2000/svg" viewBox="0 0 53.69 54.1"><defs><style>.a,.b{fill:#bb5253;stroke:#efe7d1;stroke-width:1.5px}.a{stroke-miterlimit:10}.b{stroke-linecap:round;stroke-linejoin:round}</style></defs><path class="a" d="M39.94 47.45a3.76 3.76 0 0 0-5.86 2.62 3.76 3.76 0 0 1-7.19 1 3.77 3.77 0 0 0-6.35-1A3.76 3.76 0 0 1 14 47a3.76 3.76 0 0 0-4.82-4.23 3.76 3.76 0 0 1-3.88-6.14 3.76 3.76 0 0 0-1.8-6.15 3.76 3.76 0 0 1 .06-7.26 3.76 3.76 0 0 0 1.85-6.14 3.76 3.76 0 0 1 4-6.08 3.77 3.77 0 0 0 4.88-4.17 3.76 3.76 0 0 1 6.63-3A3.75 3.75 0 0 0 27.24 3a3.76 3.76 0 0 1 7.18 1.09 3.76 3.76 0 0 0 5.82 2.7 3.76 3.76 0 0 1 5.45 4.8A3.76 3.76 0 0 0 49.12 17a3.76 3.76 0 0 1 2 7 3.76 3.76 0 0 0 0 6.41 3.76 3.76 0 0 1-2.1 7 3.76 3.76 0 0 0-3.51 5.37 3.76 3.76 0 0 1-5.57 4.67Z"/><circle class="a" cx="26.84" cy="27.05" r="17.01"/><path class="b" d="m18.06 25.44 8.54 7.72M35.63 20.94 26.6 33.16"/></svg>