<svg xmlns="http://www.w3.org/2000/svg" viewBox="0 0 49.82 42.38"><defs><style>.cls-1{fill:#9e9e9e}</style></defs><g id="Layer_2" data-name="Layer 2"><g id="Слой_1" data-name="Слой 1"><path class="cls-1" d="M.75 21.19h48.31v18.58H.75z"/><path class="cls-1" d="M49.82 40.53H0V20.44h49.82ZM1.5 39h46.81V21.94H1.5ZM49.06 41.63V21.19"/><path class="cls-1" d="M49.06 42.38a.75.75 0 0 1-.75-.75V21.19a.76.76 0 0 1 1.51 0v20.44a.75.75 0 0 1-.76.75ZM.75 41.63V21.19M.75 42.38a.75.75 0 0 1-.75-.75V21.19a.75.75 0 0 1 1.5 0v20.44a.74.74 0 0 1-.75.75ZM43.49.75H6.33a3.71 3.71 0 0 0-3.72 3.72v13h3.72v-3.71a1.85 1.85 0 0 1 1.85-1.86h13a1.86 1.86 0 0 1 1.86 1.86v3.72h3.72v-3.72a1.85 1.85 0 0 1 1.85-1.86h13a1.86 1.86 0 0 1 1.86 1.86v3.72h3.72v-13a3.72 3.72 0 0 0-3.7-3.73Z"/><path class="cls-1" d="M48 18.23h-5.26v-4.47a1.11 1.11 0 0 0-1.11-1.11h-13a1.11 1.11 0 0 0-1.1 1.11v4.47H22.3v-4.47a1.11 1.11 0 0 0-1.11-1.11h-13a1.11 1.11 0 0 0-1.1 1.11v4.47H1.86V4.47A4.47 4.47 0 0 1 6.33 0h37.16A4.47 4.47 0 0 1 48 4.47Zm-3.72-1.51h2.22V4.47a3 3 0 0 0-3-3H6.33a3 3 0 0 0-3 3v12.25h2.24v-3a2.62 2.62 0 0 1 2.61-2.61h13a2.61 2.61 0 0 1 2.61 2.61v3H26v-3a2.61 2.61 0 0 1 2.6-2.61h13a2.61 2.61 0 0 1 2.61 2.61Z"/></g></g></svg>