<svg xmlns="http://www.w3.org/2000/svg" viewBox="0 0 33.19 49.85"><g data-name="Layer 2"><g data-name="Слой 1"><path d="M28 37.39c6.63 0 7-9.51.48-12 .75-1.66.56-1.39.56-15A10.39 10.39 0 0 0 18.68 0h-4.16A10.39 10.39 0 0 0 4.13 10.39c0 13.71-.18 13.35.57 15-6.46 2.46-6.22 12 .47 12h9.35v4.15H8.29a4.16 4.16 0 1 0 4.15 4.16h8.31a4.16 4.16 0 1 0 4.16-4.16h-6.23v-4.15Zm-19.73-27a6.23 6.23 0 0 1 6.23-6.24h4.16a6.23 6.23 0 0 1 6.23 6.24v12.46a2.08 2.08 0 0 1-2.08 2.08H10.37a2.08 2.08 0 0 1-2.08-2.08ZM4.13 32.2a3.12 3.12 0 0 1 3.12-3.12H26c3.09 0 4.15 4.16 2.07 4.16-23.94 0-23.94.43-23.94-1.04Z" style="fill:#9e9e9e" data-name="office chair"/></g></g></svg>