<svg xmlns="http://www.w3.org/2000/svg" viewBox="0 0 59.98 47.35"><defs><style>.a{fill:#bb5253;stroke:#efe7d1;stroke-linecap:round;stroke-linejoin:round;stroke-width:1.5px;}</style></defs><circle class="a" cx="36.3" cy="23.68" r="22.93"/><circle class="a" cx="36.3" cy="23.68" r="17.41"/><line class="a" x1="36.3" y1="10.03" x2="36.3" y2="11.28"/><line class="a" x1="49.96" y1="23.68" x2="48.72" y2="23.68"/><line class="a" x1="36.32" y1="37.32" x2="36.32" y2="36.08"/><line class="a" x1="22.67" y1="23.68" x2="23.92" y2="23.68"/><line class="a" x1="36.32" y1="16.31" x2="36.32" y2="23.68"/><line class="a" x1="41.79" y1="23.68" x2="36.32" y2="23.68"/><line class="a" x1="17.73" y1="2.65" x2="26.12" y2="2.65"/><line class="a" x1="7.59" y1="2.65" x2="12.92" y2="2.65"/><line class="a" x1="6.95" y1="13.5" x2="15.04" y2="13.5"/><line class="a" x1="3" y1="8.48" x2="10.07" y2="8.48"/><line class="a" x1="1.15" y1="25.98" x2="10.07" y2="25.98"/><line class="a" x1="10.99" y1="36.7" x2="16.85" y2="36.7"/><line class="a" x1="0.75" y1="36.7" x2="5.25" y2="36.7"/><line class="a" x1="16.51" y1="46.6" x2="33.27" y2="46.6"/><line class="a" x1="4.51" y1="46.6" x2="7.59" y2="46.6"/><line class="a" x1="10.07" y1="42.4" x2="15.11" y2="42.4"/><line class="a" x1="3" y1="31.55" x2="6.95" y2="31.55"/><line class="a" x1="1.15" y1="19.34" x2="4.97" y2="19.34"/></svg>