<svg xmlns="http://www.w3.org/2000/svg" viewBox="0 0 47.77 47.77"><defs><style>.a{fill:#bb5253;}.a,.b{stroke:#efe7d1;stroke-linecap:round;stroke-linejoin:round;stroke-width:1.5px;}.b{fill:none;}</style></defs><circle class="a" cx="23.89" cy="23.89" r="23.14"/><line class="a" x1="31.84" y1="15.49" x2="38.18" y2="15.49"/><line class="a" x1="40.9" y1="22.16" x2="38.18" y2="15.49"/><circle class="a" cx="16.66" cy="31.57" r="3.17"/><circle class="a" cx="36.37" cy="31.57" r="3.17"/><line class="a" x1="6.58" y1="16.59" x2="16.66" y2="16.59"/><line class="a" x1="10.34" y1="20.56" x2="17.5" y2="20.56"/><line class="a" x1="4.97" y1="20.56" x2="7.92" y2="20.56"/><line class="a" x1="13.5" y1="24.59" x2="14.7" y2="24.59"/><line class="a" x1="5.16" y1="24.59" x2="10.47" y2="24.59"/><line class="a" x1="6.67" y1="28.22" x2="12.11" y2="28.22"/><path class="b" d="M10.22,31.57H13.5a3.17,3.17,0,1,1,6.33,0H33.21a3.17,3.17,0,1,1,6.33,0h3.27V24.78L40.9,22.16H31.84V13H10.22"/></svg>