<svg xmlns="http://www.w3.org/2000/svg" viewBox="0 0 50 35.42"><g data-name="Layer 2"><path d="M47.92 0H2.08A2 2 0 0 0 0 2.08a2 2 0 0 0 2.08 2.09h16.67v2.08a2 2 0 0 0 2.08 2.08v9a16.75 16.75 0 0 0-12.5 16v2.09h6.25v-2.09a10.53 10.53 0 0 1 6.25-9.58v11.67h8.34V23.75a10.31 10.31 0 0 1 6.25 9.58v2.09h6.25v-2.09a16.75 16.75 0 0 0-12.5-16v-9a2 2 0 0 0 2.08-2.08V4.17h16.67A2 2 0 0 0 50 2.08 2 2 0 0 0 47.92 0ZM29.17 19.37a14.57 14.57 0 0 1 10.41 14H37.5a12.89 12.89 0 0 0-8.33-11.87l-2.09-.21v12.04h-4.16V21.25l-2.09.21a12.48 12.48 0 0 0-8.33 11.87h-2.08a14.57 14.57 0 0 1 10.41-14l2.09-.2V8.33h4.16V19Zm0-13.12h-8.34V4.17h8.34Z" style="fill:#9e9e9e" data-name="Слой 1"/></g></svg>