<svg xmlns="http://www.w3.org/2000/svg" viewBox="0 0 32.07 32.07"><path d="M7.64,0c.21.05.42.09.63.15a5,5,0,0,1,2.32,1.3c1,1,1.95,1.94,2.92,2.93a5,5,0,0,1,0,7.11c-.08.08-.18.14-.34.28a6.46,6.46,0,0,1,.51.41l3.14,3.14a1.25,1.25,0,0,1-.51,2.11,1.18,1.18,0,0,1-1.21-.29q-2.26-2.25-4.52-4.52a1.23,1.23,0,0,1,0-1.75c.36-.38.74-.74,1.1-1.11a2.49,2.49,0,0,0,0-3.7L8.93,3.33a2.51,2.51,0,0,0-3.73,0L3.87,4.65a4.42,4.42,0,0,0,0,6.41l10.05,10,7,7a4.43,4.43,0,0,0,6.52,0c.44-.43.88-.87,1.31-1.31a2.49,2.49,0,0,0,0-3.65c-.91-.92-1.83-1.84-2.75-2.75a2.56,2.56,0,0,0-3.74,0c-.35.34-.69.7-1,1a1.26,1.26,0,0,1-1.82,0,1.24,1.24,0,0,1,.06-1.81c.38-.39.76-.78,1.15-1.15a5,5,0,0,1,7,0c1,1,2,2,3,3a5,5,0,0,1,0,7c-.65.66-1.29,1.34-2,1.94a6.93,6.93,0,0,1-9.13-.25l-.42-.42Q10.69,21.42,2.3,13.05A7.22,7.22,0,0,1,.05,8.63a.54.54,0,0,0,0-.11V7.2A1.66,1.66,0,0,0,.06,7,6.47,6.47,0,0,1,1.62,3.42C2.3,2.66,3,1.94,3.77,1.24A4.42,4.42,0,0,1,5.82.16L6.51,0Z"/><path d="M23.11,7.21l1.07-1.1A1.25,1.25,0,1,1,26,7.87L24.85,9c.41.38.8.74,1.17,1.12a1.24,1.24,0,0,1-.52,2.07,1.21,1.21,0,0,1-1.29-.34L23.09,10.7c-.39.41-.74.8-1.13,1.17a1.24,1.24,0,0,1-2.07-.52,1.23,1.23,0,0,1,.34-1.29L21.35,9l-1.07-1a1.26,1.26,0,1,1,1.77-1.79Z"/></svg>