<svg xmlns="http://www.w3.org/2000/svg" viewBox="0 0 40 50"><defs><style>.cls-1{fill:#9e9e9e}</style></defs><g id="Layer_2" data-name="Layer 2"><g id="Слой_1" data-name="Слой 1"><g id="Layer_2-2" data-name="Layer 2"><path class="cls-1" d="M38.33 45A1.67 1.67 0 0 0 40 43.33V1.67A1.67 1.67 0 0 0 38.33 0H1.67A1.67 1.67 0 0 0 0 1.67v41.66A1.67 1.67 0 0 0 1.67 45v3.33A1.66 1.66 0 0 0 3.33 50h33.34a1.66 1.66 0 0 0 1.66-1.67Zm-1.66-3.33h-15V3.33h15ZM3.33 3.33h15v38.34h-15ZM35 46.67H5V45h30Z"/><path class="cls-1" d="M28.33 33.33H30a5 5 0 0 0 5-5V10a5 5 0 0 0-5-5h-1.67a5 5 0 0 0-5 5v18.33a5 5 0 0 0 5 5ZM26.67 10a1.66 1.66 0 0 1 1.66-1.67H30A1.67 1.67 0 0 1 31.67 10v18.33A1.67 1.67 0 0 1 30 30h-1.67a1.66 1.66 0 0 1-1.66-1.67ZM11.67 5H10a5 5 0 0 0-5 5v18.33a5 5 0 0 0 5 5h1.67a5 5 0 0 0 5-5V10a5 5 0 0 0-5-5Zm1.66 23.33A1.66 1.66 0 0 1 11.67 30H10a1.67 1.67 0 0 1-1.67-1.67V10A1.67 1.67 0 0 1 10 8.33h1.67A1.66 1.66 0 0 1 13.33 10Z"/></g></g></g></svg>