<svg xmlns="http://www.w3.org/2000/svg" viewBox="0 0 59.98 47.35"><defs><style>.a{fill:#bb5253;stroke:#efe7d1;stroke-linecap:round;stroke-linejoin:round;stroke-width:1.5px}</style></defs><circle class="a" cx="36.3" cy="23.68" r="22.93"/><circle class="a" cx="36.3" cy="23.68" r="17.41"/><path class="a" d="M36.3 10.03v1.25M49.96 23.68h-1.24M36.32 37.32v-1.24M22.67 23.68h1.25M36.32 16.31v7.37M41.79 23.68h-5.47M17.73 2.65h8.39M7.59 2.65h5.33M6.95 13.5h8.09M3 8.48h7.07M1.15 25.98h8.92M10.99 36.7h5.86M.75 36.7h4.5M16.51 46.6h16.76M4.51 46.6h3.08M10.07 42.4h5.04M3 31.55h3.95M1.15 19.34h3.82"/></svg>