<svg xmlns="http://www.w3.org/2000/svg" viewBox="0 0 53.69 54.1"><defs><style>.a,.b{fill:#bb5253;stroke:#efe7d1;stroke-width:1.5px;}.a{stroke-miterlimit:10;}.b{stroke-linecap:round;stroke-linejoin:round;}</style></defs><path class="a" d="M39.94,47.45h0a3.76,3.76,0,0,0-5.86,2.62h0a3.76,3.76,0,0,1-7.19,1h0a3.77,3.77,0,0,0-6.35-1h0A3.76,3.76,0,0,1,14,47h0a3.76,3.76,0,0,0-4.82-4.23h0a3.76,3.76,0,0,1-3.88-6.14h0A3.76,3.76,0,0,0,3.5,30.48h0a3.76,3.76,0,0,1,.06-7.26h0a3.76,3.76,0,0,0,1.85-6.14h0a3.76,3.76,0,0,1,4-6.08h0a3.77,3.77,0,0,0,4.88-4.17h0a3.76,3.76,0,0,1,6.63-3h0A3.75,3.75,0,0,0,27.24,3h0a3.76,3.76,0,0,1,7.18,1.09h0a3.76,3.76,0,0,0,5.82,2.7h0a3.76,3.76,0,0,1,5.45,4.8h0A3.76,3.76,0,0,0,49.12,17h0a3.76,3.76,0,0,1,2,7h0a3.76,3.76,0,0,0,0,6.41h0a3.76,3.76,0,0,1-2.1,7h0a3.76,3.76,0,0,0-3.51,5.37h0A3.76,3.76,0,0,1,39.94,47.45Z" transform="translate(0 0)"/><circle class="a" cx="26.84" cy="27.05" r="17.01"/><line class="b" x1="18.06" y1="25.44" x2="26.6" y2="33.16"/><line class="b" x1="35.63" y1="20.94" x2="26.6" y2="33.16"/></svg>