<svg xmlns="http://www.w3.org/2000/svg" viewBox="0 0 276.06 79.39"><defs><style>.a{fill:#424d47;}.b{fill:#bb5253;}.c,.d{fill:none;stroke-miterlimit:10;}.c{stroke:#3c4359;}.d{stroke:#bb5253;stroke-linecap:round;stroke-width:4px;}</style></defs><path class="a" d="M68.73,30h9.86v1.47L74.24,32H73.5l-4.77-.54Zm0,22.62L73.51,52h.37v2H68.73Zm3.45-9.69V41.11c0-3.78,0-7.53-.11-11.16h3.61c-.1,3.71-.1,7.45-.1,11.16v1.77c0,3.78,0,7.52.1,11.16H72.07C72.18,50.33,72.18,46.59,72.18,42.88Zm1.7,9.34h24.2V54H73.88ZM81.26,30h9.43v1.47L86.34,32h-.73l-4.35-.54Zm3,12.93V41.11c0-3.71,0-7.46-.11-11.16h3.61c-.11,3.64-.11,7.38-.11,11.16v1.77c0,3.71,0,7.45.11,11.16H84.17C84.28,50.4,84.28,46.66,84.28,42.88ZM93.36,30h9.86v1.47L98.46,32h-.74l-4.36-.54Zm3,12.93V41.11c0-3.71,0-7.45-.11-11.16h3.61c-.1,3.63-.1,7.38-.1,11.16v1.77c0,3.71,0,7.45.1,11.16H96.27C96.38,50.4,96.38,46.66,96.38,42.88ZM98.08,52h.36l4.78.54V54H98.08Z"/><path class="a" d="M106.34,30H116.5v1.47l-4.72.54H111l-4.7-.54Zm0,22.62L111,52h.74l4.72.54V54H106.34Zm3.38-9.69V41.11c0-3.71,0-7.45-.1-11.16h3.6c-.11,3.63-.11,7.38-.11,11.16V54h-3.48C109.72,50.4,109.72,46.66,109.72,42.88ZM111,50.62l16-19.77.12,2.55-16,19.67ZM121.69,30h10.15v1.47l-4.71.54h-.73l-4.71-.54Zm0,22.62L126.4,52h.73l4.71.54V54H121.69Zm3.38-10.38V30h3.49c-.11,3.63-.11,7.38-.11,11.16v1.77c0,3.71,0,7.45.11,11.16H125C125.07,50.4,125.07,46.66,125.07,42.19Z"/><path class="a" d="M143.41,33.73h2.1V35.3h-1.95c-5,0-6.41,3.32-6.41,6.7s1.39,6.7,6.41,6.7h1.95v1.57h-2.1c-6.29,0-9.64-3.29-9.64-8.28S137,33.73,143.41,33.73Zm-2.79-4.21h10.15V31l-4.71.54h-.74l-4.7-.54Zm0,23.48,4.7-.61h.74l4.71.61v1.47H140.62Zm3.56-9.86V41.2c0-3.71,0-8-.11-11.68h3.24c-.1,3.63-.1,7.9-.1,11.68v1.94c0,3.7,0,7.62.1,11.33h-3.24C144.18,50.83,144.18,46.92,144.18,43.14Zm1.7,5.56h2c5,0,6.41-3.37,6.41-6.7s-1.43-6.7-6.41-6.7h-2V33.73H148c6.44,0,9.63,3.34,9.63,8.26s-3.34,8.28-9.63,8.28h-2.1Z"/><path class="a" d="M182.78,42c0,7.91-5.41,12.6-11,12.6s-11-4.38-11-12.6c0-7.9,5.47-12.59,11-12.59S182.78,33.78,182.78,42Zm-11,10.78c5,0,7.08-5.34,7.08-10.78s-2.08-10.77-7.08-10.77-7.11,5.34-7.11,10.77S166.78,52.77,171.77,52.77Z"/><path class="a" d="M185.22,31.42V30h10.15v1.47l-4.71.54h-.74ZM190.66,52l4.71.54V54H185.22V52.57l4.7-.54ZM188.6,41.11c0-3.71,0-7.45-.11-11.16h3.62c-.11,3.63-.11,7.38-.11,11.16v1.08c0,4.4,0,8.14.11,11.85h-3.62c.11-3.64.11-7.38.11-11.16Zm1.7,1.43V40.86h15v1.68Zm10-11.12V30h10.15v1.47l-4.71.54H205ZM205.71,52l4.71.54V54H200.27V52.57L205,52Zm-2.07-10.92c0-3.71,0-7.45-.11-11.16h3.61c-.1,3.63-.1,7.38-.1,11.16v1.77c0,3.71,0,7.45.1,11.16h-3.61c.11-3.64.11-7.38.11-11.85Z"/><path class="a" d="M213.62,30h10.51v1.47l-4.71.54h-1.1l-4.7-.54Zm0,22.62,4.71-.54h.38v2h-5.09ZM217,42.88V41.11c0-3.71,0-7.45-.11-11.16h3.62c-.11,3.63-.11,7.38-.11,11.11v1.82c0,3.71,0,7.45.11,11.16h-3.62C217,50.4,217,46.66,217,42.88Zm1.71,9.48H223c4.79,0,6.66-2,6.66-5.36s-1.5-5.31-6.31-5.31a22.06,22.06,0,0,0-4.65.36V40.23a49.67,49.67,0,0,1,5.46-.36c6.1,0,9.07,2.94,9.07,7,0,3.36-2.39,7.15-9.78,7.15h-4.75Z"/><path class="a" d="M235.55,31.42V30h5.08v2h-.37ZM240.63,52v2h-5.08V52.57l4.71-.54Zm-1.7-10.92c0-3.71,0-7.45-.11-11.16h3.62c-.11,3.63-.11,7.38-.11,11.16v1.35c0,4.13,0,7.87.11,11.58h-3.62c.11-3.64.11-7.38.11-11.16ZM250.53,30l1.68,1.81H240.63V30h12.83l.26,6.39h-2.08Zm-1.78,12.63h-8.12V40.89h8.12Zm5.69,5.06-.26,6.4H240.63V52.23h12.3L251.25,54l1.11-6.4Zm-6.84-6.37.54-3.8h1.65V46h-1.65l-.54-4Z"/><path class="a" d="M257.25,31.42V30h5.09v2H262ZM262.74,52l4.71.54V54h-10.2V52.57L262,52Zm-2.1-10.92c0-3.71,0-7.45-.11-11.16h3.61c-.1,3.63-.1,7.38-.1,11.16V43.3c0,3.63,0,7,.1,10.74h-3.61c.11-3.64.11-7.38.11-11.16Zm5.29,3.42h-3.59V42.85h4.1c4.36,0,6.07-2.33,6.07-5.74s-1.93-5.48-6.22-5.48h-4V30h4.6c6.07,0,9.12,2.94,9.12,7.16C276.06,41.14,273.3,44.53,265.93,44.53Z"/><ellipse class="b" cx="12.35" cy="76.78" rx="2.4" ry="2.62"/><path class="b" d="M0,7.78V76.06H24.7V7.78ZM23.79,43.47H20.94v-3.1h2.85Z"/><rect class="c" x="6.39" y="14.46" width="11.93" height="24.47"/><rect class="c" x="6.39" y="44.31" width="11.93" height="24.47"/><ellipse class="b" cx="39.29" cy="76.78" rx="2.4" ry="2.62"/><path class="b" d="M26.94,7.78V76.06h24.7V7.78Zm.9,32.59H30.7v3.1H27.84Z"/><rect class="c" x="33.33" y="14.46" width="11.93" height="24.47" transform="translate(78.58 53.39) rotate(180)"/><rect class="c" x="33.33" y="44.31" width="11.93" height="24.47" transform="translate(78.58 113.09) rotate(180)"/><path class="b" d="M36.46,4.42C35.53,1.91,31.12,0,25.82,0S16.11,1.91,15.18,4.42H0V6.13H51.64V4.42Z"/><line class="d" x1="69.67" y1="63.21" x2="273.17" y2="63.21"/></svg>