<svg xmlns="http://www.w3.org/2000/svg" viewBox="0 0 276.06 79.39"><defs><style>.a{fill:#bb5253;}.b,.d{fill:none;stroke-miterlimit:10;}.b{stroke:#3c4359;}.c{fill:#424d47;}.d{stroke:#bb5253;stroke-linecap:round;stroke-width:4px;}</style></defs><ellipse class="a" cx="12.35" cy="76.78" rx="2.4" ry="2.62"/><path class="a" d="M0,7.78V76.06H24.7V7.78ZM23.79,43.47H20.94v-3.1h2.85Z"/><rect class="b" x="6.39" y="14.46" width="11.93" height="24.47"/><rect class="b" x="6.39" y="44.31" width="11.93" height="24.47"/><ellipse class="a" cx="39.29" cy="76.78" rx="2.4" ry="2.62"/><path class="a" d="M26.94,7.78V76.06h24.7V7.78Zm.9,32.59H30.7v3.1H27.84Z"/><rect class="b" x="33.33" y="14.46" width="11.93" height="24.47" transform="translate(78.58 53.39) rotate(180)"/><rect class="b" x="33.33" y="44.31" width="11.93" height="24.47" transform="translate(78.58 113.09) rotate(180)"/><path class="a" d="M36.46,4.42C35.53,1.91,31.12,0,25.82,0S16.11,1.91,15.18,4.42H0V6.13H51.64V4.42Z"/><path class="c" d="M68.73,24.61h9.86v1.47l-4.35.54H73.5l-4.77-.54Zm0,22.62,4.78-.54h.37v2H68.73Zm3.45-9.69V35.77c0-3.78,0-7.53-.11-11.16h3.61c-.1,3.7-.1,7.45-.1,11.16v1.77c0,3.78,0,7.52.1,11.16H72.07C72.18,45,72.18,41.25,72.18,37.54Zm1.7,9.34h24.2V48.7H73.88Zm7.38-22.27h9.43v1.47l-4.35.54h-.73l-4.35-.54Zm3,12.93V35.77c0-3.72,0-7.46-.11-11.16h3.61c-.11,3.63-.11,7.38-.11,11.16v1.77c0,3.71,0,7.45.11,11.16H84.17C84.28,45.06,84.28,41.32,84.28,37.54Zm9.08-12.93h9.86v1.47l-4.76.54h-.74l-4.36-.54Zm3,12.93V35.77c0-3.71,0-7.46-.11-11.16h3.61c-.1,3.63-.1,7.38-.1,11.16v1.77c0,3.71,0,7.45.1,11.16H96.27C96.38,45.06,96.38,41.32,96.38,37.54Zm1.7,9.15h.36l4.78.54V48.7H98.08Z"/><path class="c" d="M106.34,24.61H116.5v1.47l-4.72.54H111l-4.7-.54Zm0,22.62,4.7-.54h.74l4.72.54V48.7H106.34Zm3.38-9.69V35.77c0-3.71,0-7.46-.1-11.16h3.6c-.11,3.63-.11,7.38-.11,11.16V48.7h-3.48C109.72,45.06,109.72,41.32,109.72,37.54ZM111,45.28l16-19.77.12,2.55-16,19.67Zm10.68-20.67h10.15v1.47l-4.71.54h-.73l-4.71-.54Zm0,22.62,4.71-.54h.73l4.71.54V48.7H121.69Zm3.38-10.38V24.61h3.49c-.11,3.63-.11,7.38-.11,11.16v1.77c0,3.71,0,7.45.11,11.16H125C125.07,45.06,125.07,41.32,125.07,36.85Z"/><path class="c" d="M143.41,28.39h2.1V30h-1.95c-5,0-6.41,3.33-6.41,6.71s1.39,6.7,6.41,6.7h1.95v1.56h-2.1c-6.29,0-9.64-3.28-9.64-8.27S137,28.39,143.41,28.39Zm-2.79-4.21h10.15v1.47l-4.71.54h-.74l-4.7-.54Zm0,23.48,4.7-.61h.74l4.71.61v1.47H140.62Zm3.56-9.87V35.85c0-3.7,0-8-.11-11.67h3.24c-.1,3.63-.1,7.9-.1,11.67v1.94c0,3.71,0,7.63.1,11.34h-3.24C144.18,45.49,144.18,41.57,144.18,37.79Zm1.7,5.57h2c5,0,6.41-3.37,6.41-6.7S152.81,30,147.83,30h-2V28.39H148c6.44,0,9.63,3.34,9.63,8.26s-3.34,8.27-9.63,8.27h-2.1Z"/><path class="c" d="M182.78,36.65c0,7.91-5.41,12.59-11,12.59s-11-4.37-11-12.59c0-7.91,5.47-12.59,11-12.59S182.78,28.43,182.78,36.65Zm-11,10.78c5,0,7.08-5.35,7.08-10.78s-2.08-10.78-7.08-10.78-7.11,5.35-7.11,10.78S166.78,47.43,171.77,47.43Z"/><path class="c" d="M185.22,26.08V24.61h10.15v1.47l-4.71.54h-.74Zm5.44,20.61,4.71.54V48.7H185.22V47.23l4.7-.54ZM188.6,35.77c0-3.71,0-7.46-.11-11.16h3.62C192,28.24,192,32,192,35.77v1.08c0,4.4,0,8.14.11,11.85h-3.62c.11-3.64.11-7.38.11-11.16Zm1.7,1.43V35.52h15V37.2Zm10-11.12V24.61h10.15v1.47l-4.71.54H205Zm5.44,20.61,4.71.54V48.7H200.27V47.23l4.7-.54Zm-2.07-10.92c0-3.71,0-7.46-.11-11.16h3.61c-.1,3.63-.1,7.38-.1,11.16v1.77c0,3.71,0,7.45.1,11.16h-3.61c.11-3.64.11-7.38.11-11.85Z"/><path class="c" d="M213.62,24.61h10.51v1.47l-4.71.54h-1.1l-4.7-.54Zm0,22.62,4.71-.54h.38v2h-5.09ZM217,37.54V35.77c0-3.71,0-7.46-.11-11.16h3.62c-.11,3.63-.11,7.38-.11,11.11v1.82c0,3.71,0,7.45.11,11.16h-3.62C217,45.06,217,41.32,217,37.54ZM218.71,47H223c4.79,0,6.66-2,6.66-5.36s-1.5-5.31-6.31-5.31a22.06,22.06,0,0,0-4.65.36V34.89a47.33,47.33,0,0,1,5.46-.36c6.1,0,9.07,2.94,9.07,7,0,3.36-2.39,7.15-9.78,7.15h-4.75Z"/><path class="c" d="M235.55,26.08V24.61h5.08v2h-.37Zm5.08,20.61v2h-5.08V47.23l4.71-.54Zm-1.7-10.92c0-3.71,0-7.46-.11-11.16h3.62c-.11,3.63-.11,7.38-.11,11.16v1.35c0,4.13,0,7.87.11,11.58h-3.62c.11-3.64.11-7.38.11-11.16Zm11.6-11.16,1.68,1.81H240.63V24.61h12.83l.26,6.39h-2.08Zm-1.78,12.62h-8.12V35.55h8.12Zm5.69,5.07-.26,6.4H240.63V46.89h12.3l-1.68,1.81,1.11-6.4Zm-6.84-6.37.54-3.8h1.65v8.49h-1.65l-.54-4Z"/><path class="c" d="M257.25,26.08V24.61h5.09v2H262Zm5.49,20.61,4.71.54V48.7h-10.2V47.23l4.71-.54Zm-2.1-10.92c0-3.71,0-7.46-.11-11.16h3.61c-.1,3.63-.1,7.38-.1,11.16V38c0,3.63,0,7,.1,10.74h-3.61c.11-3.64.11-7.38.11-11.16Zm5.29,3.42h-3.59V37.51h4.1c4.36,0,6.07-2.33,6.07-5.74s-1.93-5.48-6.22-5.48h-4V24.61h4.6c6.07,0,9.12,2.94,9.12,7.16C276.06,35.8,273.3,39.19,265.93,39.19Z"/><line class="d" x1="69.67" y1="57.86" x2="273.17" y2="57.86"/></svg>