<svg xmlns="http://www.w3.org/2000/svg" viewBox="0 0 208.39 35.8"><defs><style>.cls-1{fill:#424d47}</style></defs><g id="Layer_2" data-name="Layer 2"><g id="Слой_1" data-name="Слой 1"><path class="cls-1" d="M1.53 6h9.86v1.44L7 8h-.71l-4.76-.56Zm0 22.62 4.77-.54h.37v2H1.53ZM5 18.9v-1.77C5 13.35 5 9.61 4.87 6h3.61c-.11 3.71-.11 7.45-.11 11.16v1.74c0 3.78 0 7.52.11 11.16H4.87C5 26.35 5 22.61 5 18.9Zm1.7 9.34h24.18v1.82H6.67ZM14.06 6h9.43v1.44L19.14 8h-.73l-4.35-.54Zm3 12.93v-1.8c0-3.71 0-7.46-.11-11.16h3.61c-.11 3.64-.11 7.38-.11 11.16v1.77c0 3.71 0 7.46.11 11.16H17c.08-3.64.08-7.38.08-11.16ZM26.16 6H36v1.44L31.25 8h-.74l-4.35-.54Zm3 12.93v-1.8c0-3.71 0-7.45-.1-11.16h3.61c-.11 3.64-.11 7.38-.11 11.16v1.77c0 3.71 0 7.45.11 11.16h-3.6c.1-3.64.1-7.38.1-11.16Zm1.71 9.15h.36l4.78.54v1.47h-5.13ZM39.14 6h10.15v1.44L44.58 8h-.74l-4.7-.54Zm0 22.62 4.7-.54h.74l4.71.54v1.47H39.14Zm3.38-9.69v-1.8c0-3.71 0-7.45-.11-11.16H46c-.11 3.64-.11 7.38-.11 11.16v12.93h-3.48c.11-3.64.11-7.38.11-11.16Zm1.29 7.74 16-19.77.19 2.52-16 19.67ZM54.49 6h10.15v1.44L59.93 8h-.73l-4.71-.54Zm0 22.62 4.71-.54h.73l4.71.54v1.47H54.49Zm3.38-10.38V6h3.49c-.11 3.64-.11 7.38-.11 11.16v1.74c0 3.71 0 7.45.11 11.16h-3.6c.11-3.64.11-7.38.11-11.85ZM76.2 9.75h2.11v1.57h-2c-5 0-6.41 3.32-6.41 6.7s1.39 6.7 6.41 6.7h2v1.57H76.2c-6.28 0-9.63-3.28-9.63-8.27s3.2-8.27 9.63-8.27Zm-2.78-4.21h10.15V7l-4.71.54h-.74L73.42 7Zm0 23.48 4.7-.61h.74l4.71.61v1.47H73.42ZM77 19.16v-1.94c0-3.71 0-8-.11-11.68h3.24C80 9.18 80 13.44 80 17.22v1.94c0 3.71 0 7.62.11 11.33h-3.24c.13-3.64.13-7.55.13-11.33Zm1.7 5.56h1.95c5 0 6.4-3.37 6.4-6.7s-1.42-6.7-6.4-6.7h-1.97V9.75h2.1c6.43 0 9.63 3.35 9.63 8.27s-3.34 8.27-9.63 8.27h-2.1ZM115.58 18c0 7.9-5.41 12.59-11 12.59s-11-4.38-11-12.59c0-7.91 5.48-12.6 11-12.6s11 4.4 11 12.6Zm-11 10.77c5 0 7.08-5.34 7.08-10.77s-2.09-10.78-7.08-10.78-7.12 5.36-7.12 10.78 2.12 10.79 7.11 10.79ZM118 7.44V6h10.15v1.44l-4.69.56h-.74Zm5.44 20.61 4.71.54v1.47H118v-1.47l4.7-.54Zm-2.04-10.92c0-3.71 0-7.45-.11-11.16h3.62c-.11 3.64-.11 7.38-.11 11.16v1.08c0 4.4 0 8.14.11 11.85h-3.62c.11-3.64.11-7.38.11-11.16Zm1.7 1.44v-1.69h15v1.69Zm10-11.13V6h10.16v1.44l-4.75.56h-.74Zm5.45 20.61 4.71.54v1.47h-10.2v-1.47l4.71-.54Zm-2.07-10.92c0-3.71 0-7.45-.11-11.16h3.61c-.1 3.64-.1 7.38-.1 11.16v1.77c0 3.71 0 7.45.1 11.16h-3.61c.11-3.64.11-7.38.11-11.85ZM146.42 6h10.51v1.44l-4.71.56h-1.1l-4.7-.54Zm0 22.62 4.71-.54h.37v2h-5.08Zm3.38-9.69v-1.8c0-3.71 0-7.45-.11-11.16h3.62c-.11 3.64-.11 7.38-.11 11.11v1.82c0 3.71 0 7.45.11 11.16h-3.62c.11-3.64.11-7.38.11-11.16Zm1.7 9.48h4.31c4.79 0 6.66-2 6.66-5.35s-1.5-5.32-6.32-5.32a22.87 22.87 0 0 0-4.65.36v-1.85a49.93 49.93 0 0 1 5.5-.35c6.1 0 9.07 2.94 9.07 7 0 3.35-2.39 7.14-9.78 7.14h-4.79ZM168.35 7.44V6h5.08v2h-.37Zm5.08 20.61v2h-5.08v-1.46l4.71-.54Zm-1.7-10.92c0-3.71 0-7.45-.11-11.16h3.62c-.11 3.64-.11 7.38-.11 11.16v1.36c0 4.12 0 7.86.11 11.57h-3.62c.11-3.64.11-7.38.11-11.16ZM183.33 6 185 7.78h-11.57V6h12.83l.26 6.4h-2.08Zm-1.78 12.6h-8.12v-1.68h8.12Zm5.69 5.07-.24 6.39h-13.57v-1.81h12.3l-1.68 1.81 1.11-6.39Zm-6.84-6.38.54-3.79h1.65V22h-1.65l-.54-4ZM190.05 7.44V6h5.09v2h-.38Zm5.49 20.61 4.71.54v1.47h-10.2v-1.47l4.71-.54Zm-2.1-10.92c0-3.71 0-7.45-.11-11.16h3.61c-.1 3.64-.1 7.38-.1 11.16v2.19c0 3.64 0 7 .1 10.74h-3.61c.11-3.64.11-7.38.11-11.16Zm5.29 3.42h-3.59v-1.68h4.1c4.36 0 6.07-2.33 6.07-5.74s-1.93-5.48-6.22-5.48h-4V6h4.6c6.07 0 9.12 2.94 9.12 7.16.05 4.01-2.71 7.39-10.08 7.39Z" transform="translate(-.47 -5.42)"/><path style="fill:none;stroke:#bb5253;stroke-linecap:round;stroke-miterlimit:10;stroke-width:4px" d="M2 33.8h203.49"/></g></g></svg>