<svg xmlns="http://www.w3.org/2000/svg" viewBox="0 0 49.82 42.38"><defs><style>.cls-1{fill:#9e9e9e;}</style></defs><g id="Layer_2" data-name="Layer 2"><g id="Слой_1" data-name="Слой 1"><rect class="cls-1" x="0.75" y="21.19" width="48.31" height="18.58"/><path class="cls-1" d="M49.82,40.53H0V20.44H49.82ZM1.5,39H48.31V21.94H1.5Z"/><line class="cls-1" x1="49.06" y1="41.63" x2="49.06" y2="21.19"/><path class="cls-1" d="M49.06,42.38a.75.75,0,0,1-.75-.75V21.19a.76.76,0,0,1,1.51,0V41.63A.75.75,0,0,1,49.06,42.38Z"/><line class="cls-1" x1="0.75" y1="41.63" x2="0.75" y2="21.19"/><path class="cls-1" d="M.75,42.38A.75.75,0,0,1,0,41.63V21.19a.75.75,0,0,1,1.5,0V41.63A.74.74,0,0,1,.75,42.38Z"/><path class="cls-1" d="M43.49.75H6.33A3.71,3.71,0,0,0,2.61,4.47v13H6.33V13.76A1.85,1.85,0,0,1,8.18,11.9h13a1.86,1.86,0,0,1,1.86,1.86v3.72h3.72V13.76a1.85,1.85,0,0,1,1.85-1.86h13a1.86,1.86,0,0,1,1.86,1.86v3.72h3.72v-13A3.72,3.72,0,0,0,43.49.75Z"/><path class="cls-1" d="M48,18.23H42.74V13.76a1.11,1.11,0,0,0-1.11-1.11h-13a1.11,1.11,0,0,0-1.1,1.11v4.47H22.3V13.76a1.11,1.11,0,0,0-1.11-1.11h-13a1.11,1.11,0,0,0-1.1,1.11v4.47H1.86V4.47A4.47,4.47,0,0,1,6.33,0H43.49A4.47,4.47,0,0,1,48,4.47Zm-3.72-1.51h2.22V4.47a3,3,0,0,0-3-3H6.33a3,3,0,0,0-3,3V16.72H5.57v-3a2.62,2.62,0,0,1,2.61-2.61h13a2.61,2.61,0,0,1,2.61,2.61v3H26v-3a2.61,2.61,0,0,1,2.6-2.61h13a2.61,2.61,0,0,1,2.61,2.61Z"/></g></g></svg>