<svg xmlns="http://www.w3.org/2000/svg" viewBox="0 0 33.19 49.85"><defs><style>.cls-1{fill:#9e9e9e;}</style></defs><g id="Layer_2" data-name="Layer 2"><g id="Слой_1" data-name="Слой 1"><g id="office_chair" data-name="office chair"><path class="cls-1" d="M28,37.39c6.63,0,7-9.51.48-12,.75-1.66.56-1.39.56-15A10.39,10.39,0,0,0,18.68,0H14.52A10.39,10.39,0,0,0,4.13,10.39h0c0,13.71-.18,13.35.57,15-6.46,2.46-6.22,12,.47,12h9.35v4.15H8.29a4.16,4.16,0,1,0,4.15,4.16h8.31a4.16,4.16,0,1,0,4.16-4.16H18.68V37.39Zm-19.73-27a6.23,6.23,0,0,1,6.23-6.24h4.16a6.23,6.23,0,0,1,6.23,6.24V22.85a2.08,2.08,0,0,1-2.08,2.08H10.37a2.08,2.08,0,0,1-2.08-2.08ZM4.13,32.2a3.12,3.12,0,0,1,3.12-3.12H26c3.09,0,4.15,4.16,2.07,4.16C4.13,33.24,4.13,33.67,4.13,32.2Z"/></g></g></g></svg>