<svg xmlns="http://www.w3.org/2000/svg" viewBox="0 0 208.39 35.8"><defs><style>.cls-1{fill:#424d47;}.cls-2{fill:none;stroke:#bb5253;stroke-linecap:round;stroke-miterlimit:10;stroke-width:4px;}</style></defs><g id="Layer_2" data-name="Layer 2"><g id="Слой_1" data-name="Слой 1"><path class="cls-1" d="M1.53,6h9.86V7.44L7,8H6.29L1.53,7.44Zm0,22.62,4.77-.54h.37v2H1.53ZM5,18.9V17.13C5,13.35,5,9.61,4.87,6H8.48c-.11,3.71-.11,7.45-.11,11.16V18.9c0,3.78,0,7.52.11,11.16H4.87C5,26.35,5,22.61,5,18.9Zm1.7,9.34H30.88v1.82H6.67ZM14.06,6h9.43V7.44L19.14,8h-.73l-4.35-.54Zm3,12.93V17.13c0-3.71,0-7.46-.11-11.16h3.61c-.11,3.64-.11,7.38-.11,11.16V18.9c0,3.71,0,7.46.11,11.16H17C17.08,26.42,17.08,22.68,17.08,18.9ZM26.16,6H36V7.44L31.25,8h-.74l-4.35-.54Zm3,12.93V17.13c0-3.71,0-7.45-.1-11.16h3.61c-.11,3.64-.11,7.38-.11,11.16V18.9c0,3.71,0,7.45.11,11.16H29.07C29.17,26.42,29.17,22.68,29.17,18.9Zm1.71,9.15h.36l4.78.54v1.47H30.88Z" transform="translate(-0.47 -5.42)"/><path class="cls-1" d="M39.14,6H49.29V7.44L44.58,8h-.74l-4.7-.54Zm0,22.62,4.7-.54h.74l4.71.54v1.47H39.14Zm3.38-9.69V17.13c0-3.71,0-7.45-.11-11.16H46c-.11,3.64-.11,7.38-.11,11.16V30.06H42.41C42.52,26.42,42.52,22.68,42.52,18.9Zm1.29,7.74,16-19.77L60,9.42l-16,19.67ZM54.49,6H64.64V7.44L59.93,8H59.2l-4.71-.54Zm0,22.62,4.71-.54h.73l4.71.54v1.47H54.49Zm3.38-10.38V6h3.49c-.11,3.64-.11,7.38-.11,11.16V18.9c0,3.71,0,7.45.11,11.16H57.76C57.87,26.42,57.87,22.68,57.87,18.21Z" transform="translate(-0.47 -5.42)"/><path class="cls-1" d="M76.2,9.75h2.11v1.57h-2c-5,0-6.41,3.32-6.41,6.7s1.39,6.7,6.41,6.7h2v1.57H76.2c-6.28,0-9.63-3.28-9.63-8.27S69.77,9.75,76.2,9.75ZM73.42,5.54H83.57V7l-4.71.54h-.74L73.42,7Zm0,23.48,4.7-.61h.74l4.71.61v1.47H73.42ZM77,19.16V17.22c0-3.71,0-8-.11-11.68h3.24C80,9.18,80,13.44,80,17.22v1.94c0,3.71,0,7.62.11,11.33H76.87C77,26.85,77,22.94,77,19.16Zm1.7,5.56h1.95c5,0,6.4-3.37,6.4-6.7s-1.42-6.7-6.4-6.7H78.68V9.75h2.1c6.43,0,9.63,3.35,9.63,8.27s-3.34,8.27-9.63,8.27h-2.1Z" transform="translate(-0.47 -5.42)"/><path class="cls-1" d="M115.58,18c0,7.9-5.41,12.59-11,12.59s-11-4.38-11-12.59c0-7.91,5.48-12.6,11-12.6S115.58,9.8,115.58,18Zm-11,10.77c5,0,7.08-5.34,7.08-10.77s-2.09-10.78-7.08-10.78S97.46,12.58,97.46,18,99.58,28.79,104.57,28.79Z" transform="translate(-0.47 -5.42)"/><path class="cls-1" d="M118,7.44V6h10.15V7.44L123.46,8h-.74Zm5.44,20.61,4.71.54v1.47H118V28.59l4.7-.54ZM121.4,17.13c0-3.71,0-7.45-.11-11.16h3.62c-.11,3.64-.11,7.38-.11,11.16v1.08c0,4.4,0,8.14.11,11.85h-3.62c.11-3.64.11-7.38.11-11.16Zm1.7,1.44V16.88h15v1.69Zm10-11.13V6h10.16V7.44L138.51,8h-.74Zm5.45,20.61,4.71.54v1.47H133.06V28.59l4.71-.54Zm-2.07-10.92c0-3.71,0-7.45-.11-11.16h3.61c-.1,3.64-.1,7.38-.1,11.16V18.9c0,3.71,0,7.45.1,11.16h-3.61c.11-3.64.11-7.38.11-11.85Z" transform="translate(-0.47 -5.42)"/><path class="cls-1" d="M146.42,6h10.51V7.44L152.22,8h-1.1l-4.7-.54Zm0,22.62,4.71-.54h.37v2h-5.08Zm3.38-9.69V17.13c0-3.71,0-7.45-.11-11.16h3.62c-.11,3.64-.11,7.38-.11,11.11V18.9c0,3.71,0,7.45.11,11.16h-3.62C149.8,26.42,149.8,22.68,149.8,18.9Zm1.7,9.48h4.31c4.79,0,6.66-2,6.66-5.35s-1.5-5.32-6.32-5.32a22.87,22.87,0,0,0-4.65.36V16.25A49.93,49.93,0,0,1,157,15.9c6.1,0,9.07,2.94,9.07,7,0,3.35-2.39,7.14-9.78,7.14H151.5Z" transform="translate(-0.47 -5.42)"/><path class="cls-1" d="M168.35,7.44V6h5.08V8h-.37Zm5.08,20.61v2h-5.08V28.59l4.71-.54Zm-1.7-10.92c0-3.71,0-7.45-.11-11.16h3.62c-.11,3.64-.11,7.38-.11,11.16v1.36c0,4.12,0,7.86.11,11.57h-3.62c.11-3.64.11-7.38.11-11.16ZM183.33,6,185,7.78H173.43V6h12.83l.26,6.4h-2.08ZM181.55,18.6h-8.12V16.92h8.12Zm5.69,5.07L187,30.06H173.43V28.25h12.3l-1.68,1.81,1.11-6.39Zm-6.84-6.38.54-3.79h1.65V22h-1.65l-.54-4Z" transform="translate(-0.47 -5.42)"/><path class="cls-1" d="M190.05,7.44V6h5.09V8h-.38Zm5.49,20.61,4.71.54v1.47h-10.2V28.59l4.71-.54Zm-2.1-10.92c0-3.71,0-7.45-.11-11.16h3.61c-.1,3.64-.1,7.38-.1,11.16v2.19c0,3.64,0,7,.1,10.74h-3.61c.11-3.64.11-7.38.11-11.16Zm5.29,3.42h-3.59V18.87h4.1c4.36,0,6.07-2.33,6.07-5.74s-1.93-5.48-6.22-5.48h-4V6h4.6c6.07,0,9.12,2.94,9.12,7.16C208.86,17.17,206.1,20.55,198.73,20.55Z" transform="translate(-0.47 -5.42)"/><line class="cls-2" x1="2" y1="33.8" x2="205.49" y2="33.8"/></g></g></svg>