<svg xmlns="http://www.w3.org/2000/svg" viewBox="0 0 50 35.42"><defs><style>.cls-1{fill:#9e9e9e;}</style></defs><g id="Layer_2" data-name="Layer 2"><g id="Слой_1" data-name="Слой 1"><path class="cls-1" d="M47.92,0H2.08A2,2,0,0,0,0,2.08,2,2,0,0,0,2.08,4.17H18.75V6.25a2,2,0,0,0,2.08,2.08v9a16.75,16.75,0,0,0-12.5,16v2.09h6.25V33.33a10.53,10.53,0,0,1,6.25-9.58V35.42h8.34V23.75a10.31,10.31,0,0,1,6.25,9.58v2.09h6.25V33.33a16.75,16.75,0,0,0-12.5-16v-9a2,2,0,0,0,2.08-2.08V4.17H47.92A2,2,0,0,0,50,2.08,2,2,0,0,0,47.92,0ZM29.17,19.37a14.57,14.57,0,0,1,10.41,14H37.5a12.89,12.89,0,0,0-8.33-11.87l-2.09-.21V33.33H22.92V21.25l-2.09.21A12.48,12.48,0,0,0,12.5,33.33H10.42a14.57,14.57,0,0,1,10.41-14l2.09-.2V8.33h4.16V19Zm0-13.12H20.83V4.17h8.34Z"/></g></g></svg>